<svg width="35" height="23" viewBox="0 0 35 23" fill="none" xmlns="http://www.w3.org/2000/svg">
<path d="M15.3939 22.0721C15.8958 22.4233 16.5167 22.5608 17.12 22.4543C17.7233 22.3478 18.2596 22.006 18.6109 21.5041C18.6714 21.4181 18.7142 21.321 18.7371 21.2184C18.7599 21.1157 18.7622 21.0096 18.7439 20.9061C18.7256 20.8026 18.687 20.7037 18.6304 20.6152C18.5737 20.5266 18.5002 20.4501 18.4139 20.3901L16.5639 18.4411L20.7859 21.3961C20.9471 21.5094 21.1292 21.5898 21.3216 21.6325C21.514 21.6753 21.7129 21.6797 21.907 21.6454C22.1011 21.6112 22.2865 21.5389 22.4526 21.4328C22.6187 21.3266 22.7622 21.1888 22.8749 21.0271C22.9878 20.8657 23.0679 20.6836 23.1104 20.4913C23.153 20.2989 23.1573 20.1001 23.123 19.9061C23.0888 19.7122 23.0166 19.5268 22.9107 19.3607C22.8049 19.1946 22.6673 19.051 22.5059 18.9381L18.9099 15.6331L24.2849 19.3961C24.4461 19.5094 24.6282 19.5898 24.8206 19.6325C25.013 19.6753 25.2119 19.6797 25.406 19.6454C25.6001 19.6112 25.7855 19.5389 25.9516 19.4328C26.1177 19.3266 26.2612 19.1888 26.3739 19.0271C26.4868 18.8657 26.5669 18.6836 26.6094 18.4913C26.652 18.2989 26.6563 18.1001 26.622 17.9061C26.5878 17.7122 26.5156 17.5268 26.4097 17.3607C26.3039 17.1946 26.1663 17.051 26.0049 16.9381L21.2389 12.8651L27.1029 16.9701C27.2641 17.0834 27.4462 17.1638 27.6386 17.2065C27.831 17.2493 28.0299 17.2537 28.224 17.2194C28.4181 17.1852 28.6035 17.1129 28.7696 17.0068C28.9357 16.9006 29.0792 16.7628 29.1919 16.6011C29.3048 16.4397 29.3849 16.2576 29.4274 16.0653C29.47 15.8729 29.4743 15.6741 29.44 15.4801C29.4058 15.2862 29.3336 15.1008 29.2277 14.9347C29.1219 14.7686 28.9843 14.625 28.8229 14.5121L3.69889 2.93506L0.231888 8.45606C-0.157112 9.05606 -0.0511119 9.86906 0.507888 10.3471L8.29389 17.0181C8.64889 17.3221 9.01789 17.6091 9.40089 17.8771L15.3939 22.0721Z" fill="#EF9645"/>
<path d="M28.7683 13.493L17.4663 5.342L17.4073 5.262L17.4603 5.182L17.5133 5.129L18.3673 5.598C19.3253 6.218 21.5143 7.134 23.1733 7.134C24.3083 7.134 24.9883 6.709 25.1913 5.877C25.253 5.50922 25.1664 5.13198 24.9505 4.82795C24.7345 4.52391 24.4069 4.31788 24.0393 4.255C23.0358 4.10523 22.0787 3.73243 21.2383 3.164L20.6833 2.791C20.0593 2.37 19.3523 1.893 18.8303 1.585C18.1803 1.191 17.4733 1 16.6673 1C15.4713 1 14.2563 1.422 13.0823 1.83L11.8163 2.266C11.27 2.45008 10.6968 2.54167 10.1203 2.537C8.57628 2.537 7.06528 1.951 5.60428 1.385L5.45728 1.327C5.15659 1.21185 4.82523 1.20474 4.51988 1.30689C4.21453 1.40904 3.95415 1.6141 3.78328 1.887L0.316278 7.41C0.139765 7.68524 0.068571 8.01496 0.11579 8.33851C0.163009 8.66206 0.325465 8.95768 0.573278 9.171L8.35828 15.843C8.71028 16.144 9.08028 16.431 9.45828 16.695L15.6233 21.011C15.8384 21.1617 16.0812 21.2686 16.3376 21.3255C16.5941 21.3824 16.8593 21.3882 17.118 21.3426C17.3767 21.2971 17.6239 21.2009 17.8455 21.0598C18.067 20.9186 18.2586 20.7352 18.4093 20.52C18.5305 20.3459 18.5779 20.131 18.5412 19.9221C18.5045 19.7132 18.3866 19.5273 18.2133 19.405L16.3803 18.122C16.3324 18.0883 16.292 18.045 16.2616 17.995C16.2312 17.9449 16.2116 17.889 16.2039 17.831C16.1962 17.7729 16.2006 17.7139 16.2168 17.6576C16.2331 17.6013 16.2608 17.549 16.2983 17.504C16.3661 17.4226 16.4621 17.3697 16.5671 17.3558C16.6722 17.3419 16.7786 17.368 16.8653 17.429L20.8443 20.214C21.1485 20.427 21.5248 20.5104 21.8905 20.4459C22.2562 20.3813 22.5813 20.1742 22.7943 19.87C23.0072 19.5658 23.0906 19.1895 23.0261 18.8238C22.9616 18.4581 22.7545 18.133 22.4503 17.92L18.7263 15.314C18.6784 15.2803 18.638 15.237 18.6076 15.187C18.5772 15.1369 18.5576 15.081 18.5499 15.023C18.5422 14.9649 18.5466 14.9059 18.5628 14.8496C18.5791 14.7933 18.6068 14.741 18.6443 14.696C18.7122 14.6148 18.8082 14.562 18.9132 14.5482C19.0182 14.5343 19.1245 14.5603 19.2113 14.621L24.3433 18.214C24.4939 18.3195 24.6638 18.3942 24.8433 18.434C25.0229 18.4738 25.2084 18.4778 25.3895 18.4459C25.5706 18.4139 25.7436 18.3466 25.8987 18.2478C26.0537 18.149 26.1878 18.0206 26.2933 17.87C26.3987 17.7194 26.4735 17.5495 26.5133 17.3699C26.553 17.1904 26.5571 17.0048 26.5251 16.8238C26.4932 16.6427 26.4259 16.4697 26.3271 16.3146C26.2283 16.1595 26.0999 16.0255 25.9493 15.92L21.0813 12.513C21.0329 12.4796 20.9922 12.4365 20.9615 12.3863C20.9309 12.3362 20.9111 12.2802 20.9035 12.222C20.8959 12.1638 20.9006 12.1046 20.9172 12.0482C20.9339 11.9919 20.9622 11.9397 21.0003 11.895C21.061 11.8226 21.1467 11.7756 21.2404 11.7634C21.3341 11.7512 21.429 11.7746 21.5063 11.829L27.1623 15.788C27.313 15.8935 27.483 15.9682 27.6625 16.0079C27.8421 16.0477 28.0278 16.0517 28.2089 16.0197C28.39 15.9877 28.563 15.9204 28.7181 15.8215C28.8732 15.7226 29.0073 15.5942 29.1128 15.4435C29.2182 15.2928 29.293 15.1228 29.3327 14.9432C29.3725 14.7637 29.3765 14.578 29.3445 14.3969C29.3125 14.2158 29.2451 14.0427 29.1463 13.8876C29.0474 13.7326 28.919 13.5985 28.7683 13.493Z" fill="#FFDC5D"/>
<path d="M15.5018 19.67C15.4318 19.937 15.2948 20.168 15.1128 20.351L14.1088 21.347C13.9249 21.533 13.6954 21.6675 13.4433 21.737C13.1911 21.8065 12.9251 21.8085 12.6718 21.743C12.4162 21.6764 12.1826 21.5435 11.9948 21.3577C11.807 21.1719 11.6716 20.9398 11.6023 20.6849C11.533 20.43 11.5322 20.1613 11.6001 19.906C11.668 19.6507 11.8021 19.4178 11.9888 19.231L12.9928 18.235C13.1767 18.0489 13.4062 17.9145 13.6584 17.845C13.9106 17.7755 14.1766 17.7734 14.4298 17.839C14.8146 17.94 15.1435 18.1896 15.3444 18.5328C15.5454 18.8761 15.602 19.285 15.5018 19.67ZM4.95784 14.749L6.46084 13.252C6.63269 13.0803 6.7603 12.8695 6.83268 12.6377C6.90506 12.4058 6.92006 12.1599 6.87639 11.9209C6.83272 11.682 6.73167 11.4573 6.58195 11.266C6.43223 11.0748 6.2383 10.9227 6.01684 10.823C5.73941 10.6982 5.43051 10.661 5.1314 10.7164C4.83229 10.7718 4.55719 10.9171 4.34284 11.133L2.83984 12.63C2.66801 12.8017 2.54046 13.0126 2.46815 13.2445C2.39584 13.4764 2.38093 13.7224 2.4247 13.9613C2.46848 14.2002 2.56963 14.425 2.71945 14.6162C2.86928 14.8074 3.0633 14.9593 3.28484 15.059C3.56217 15.1834 3.87083 15.2204 4.1697 15.165C4.46857 15.1096 4.74349 14.9645 4.95784 14.749ZM10.1618 14.801C10.3091 14.6635 10.4271 14.4978 10.5089 14.3137C10.5907 14.1296 10.6346 13.931 10.638 13.7296C10.6414 13.5282 10.6041 13.3281 10.5285 13.1414C10.4529 12.9547 10.3404 12.7852 10.1979 12.6429C10.0553 12.5006 9.88552 12.3884 9.69868 12.3132C9.51183 12.2379 9.31174 12.201 9.11034 12.2048C8.90894 12.2085 8.71035 12.2528 8.52643 12.335C8.34251 12.4171 8.17702 12.5355 8.03984 12.683L5.03784 15.681C4.8906 15.8184 4.77255 15.9841 4.69074 16.1682C4.60893 16.3523 4.56504 16.551 4.56168 16.7524C4.55832 16.9538 4.59555 17.1538 4.67117 17.3405C4.74679 17.5272 4.85924 17.6968 5.00181 17.8391C5.14438 17.9814 5.31415 18.0935 5.501 18.1688C5.68784 18.244 5.88794 18.2809 6.08934 18.2772C6.29074 18.2734 6.48932 18.2291 6.67324 18.147C6.85716 18.0648 7.02265 17.9465 7.15984 17.799L10.1618 14.801ZM12.4118 17.801C12.6143 17.5981 12.7544 17.3415 12.8155 17.0615C12.8767 16.7815 12.8563 16.4899 12.7569 16.2211C12.6575 15.9523 12.4832 15.7176 12.2545 15.5448C12.0259 15.372 11.7526 15.2683 11.4668 15.246C11.2511 15.2297 11.0344 15.2606 10.8318 15.3366C10.6292 15.4126 10.4456 15.5318 10.2938 15.686L8.28884 17.681C8.08609 17.8838 7.94573 18.1405 7.88439 18.4206C7.82305 18.7008 7.84331 18.9926 7.94276 19.2616C8.04221 19.5306 8.21668 19.7654 8.4455 19.9383C8.67433 20.1112 8.94791 20.2148 9.23384 20.237C9.68884 20.273 10.1078 20.096 10.4068 19.797L12.4118 17.801ZM28.9668 13.664L29.5938 13.122L22.6808 2.27197L10.4108 4.25697C10.2157 4.28993 10.0289 4.361 9.86127 4.46613C9.69359 4.57126 9.54826 4.70839 9.43358 4.86968C9.31889 5.03098 9.23711 5.21329 9.19288 5.40619C9.14866 5.5991 9.14287 5.79883 9.17584 5.99397C9.83384 8.68897 15.1788 6.68697 17.5308 5.39297L28.9668 13.664Z" fill="#EF9645"/>
<path d="M15.5018 18.67C15.4318 18.937 15.2948 19.168 15.1128 19.351L14.1088 20.347C13.9249 20.5331 13.6954 20.6675 13.4433 20.737C13.1911 20.8065 12.9251 20.8086 12.6718 20.743C12.4162 20.6765 12.1826 20.5436 11.9948 20.3578C11.807 20.172 11.6716 19.9399 11.6023 19.685C11.533 19.4301 11.5322 19.1614 11.6001 18.906C11.668 18.6507 11.8021 18.4179 11.9888 18.231L12.9928 17.235C13.1767 17.049 13.4062 16.9145 13.6584 16.845C13.9106 16.7755 14.1766 16.7735 14.4298 16.839C14.8146 16.9401 15.1435 17.1896 15.3444 17.5329C15.5454 17.8761 15.602 18.2851 15.5018 18.67ZM4.95784 13.749L6.46084 12.252C6.63269 12.0804 6.7603 11.8696 6.83268 11.6377C6.90506 11.4059 6.92006 11.1599 6.87639 10.921C6.83272 10.6821 6.73167 10.4573 6.58195 10.2661C6.43223 10.0748 6.2383 9.92278 6.01684 9.82303C5.73935 9.69854 5.43053 9.66152 5.13148 9.7169C4.83243 9.77228 4.55734 9.91743 4.34284 10.133L2.83984 11.63C2.66801 11.8017 2.54046 12.0126 2.46815 12.2445C2.39584 12.4764 2.38093 12.7224 2.4247 12.9613C2.46848 13.2003 2.56963 13.425 2.71945 13.6162C2.86928 13.8074 3.0633 13.9594 3.28484 14.059C3.56217 14.1834 3.87083 14.2204 4.1697 14.165C4.46857 14.1097 4.74349 13.9645 4.95784 13.749ZM10.1618 13.801C10.3091 13.6636 10.4271 13.4979 10.5089 13.3138C10.5907 13.1297 10.6346 12.931 10.638 12.7296C10.6414 12.5282 10.6041 12.3282 10.5285 12.1415C10.4529 11.9548 10.3404 11.7852 10.1979 11.6429C10.0553 11.5006 9.88552 11.3885 9.69868 11.3132C9.51183 11.238 9.31174 11.2011 9.11034 11.2049C8.90894 11.2086 8.71035 11.2529 8.52643 11.335C8.34251 11.4172 8.17702 11.5355 8.03984 11.683L5.03784 14.681C4.8906 14.8185 4.77255 14.9842 4.69074 15.1683C4.60893 15.3524 4.56504 15.551 4.56168 15.7524C4.55832 15.9538 4.59555 16.1539 4.67117 16.3406C4.74679 16.5273 4.85924 16.6968 5.00181 16.8391C5.14438 16.9814 5.31415 17.0936 5.501 17.1688C5.68784 17.2441 5.88794 17.281 6.08934 17.2772C6.29074 17.2735 6.48932 17.2292 6.67324 17.147C6.85716 17.0649 7.02265 16.9465 7.15984 16.799L10.1618 13.801ZM12.4118 16.801C12.6143 16.5982 12.7544 16.3416 12.8155 16.0616C12.8767 15.7816 12.8563 15.4899 12.7569 15.2211C12.6575 14.9523 12.4832 14.7177 12.2545 14.5448C12.0259 14.372 11.7526 14.2683 11.4668 14.246C11.2511 14.2297 11.0344 14.2607 10.8318 14.3367C10.6292 14.4127 10.4456 14.5319 10.2938 14.686L8.28884 16.681C8.08609 16.8839 7.94573 17.1405 7.88439 17.4207C7.82305 17.7008 7.84331 17.9927 7.94276 18.2617C8.04221 18.5307 8.21668 18.7655 8.4455 18.9384C8.67433 19.1112 8.94791 19.2149 9.23384 19.237C9.68884 19.273 10.1078 19.096 10.4068 18.797L12.4118 16.801ZM33.9688 9.34503C34.2336 9.11619 34.4067 8.79932 34.4561 8.45288C34.5055 8.10643 34.428 7.7538 34.2378 7.46003L34.2348 7.45503L30.7678 0.934033C30.5848 0.641513 30.3057 0.421716 29.9785 0.312262C29.6512 0.202809 29.2961 0.210506 28.9738 0.334034C26.9818 1.10503 24.7998 1.99103 22.6818 1.27103L21.5838 0.894033C19.6358 0.219033 17.5178 -0.571966 15.5838 0.600034C14.8888 1.00903 13.8458 1.73303 13.1728 2.18003C12.3414 2.73533 11.3988 3.10253 10.4108 3.25603C10.2154 3.28837 10.0283 3.35905 9.86027 3.46399C9.69226 3.56894 9.54667 3.70609 9.43188 3.86754C9.31709 4.02899 9.23537 4.21155 9.19143 4.40471C9.14749 4.59787 9.14219 4.79782 9.17584 4.99303C9.78884 7.50503 14.4758 5.90103 17.0138 4.62403C17.1723 4.54449 17.3495 4.50998 17.5262 4.52427C17.7029 4.53855 17.8722 4.60108 18.0158 4.70503L29.5998 13.121L33.9688 9.34503Z" fill="#FFCC4D"/>
</svg>
