<svg width="48" height="49" viewBox="0 0 48 49" fill="none" xmlns="http://www.w3.org/2000/svg">
<rect y="0.5" width="48" height="48" rx="10" fill="#FFDC5D"/>
<path d="M19.2493 34.4282H16.2493C15.7188 34.4282 15.2101 34.2175 14.8351 33.8424C14.46 33.4674 14.2493 32.9587 14.2493 32.4282V25.4282C14.2493 24.8978 14.46 24.3891 14.8351 24.014C15.2101 23.6389 15.7188 23.4282 16.2493 23.4282H19.2493M26.2493 21.4282V17.4282C26.2493 16.6326 25.9332 15.8695 25.3706 15.3069C24.808 14.7443 24.0449 14.4282 23.2493 14.4282L19.2493 23.4282V34.4282H30.5293C31.0116 34.4337 31.4796 34.2646 31.8472 33.9522C32.2147 33.6398 32.4569 33.2051 32.5293 32.7282L33.9093 23.7282C33.9528 23.4416 33.9334 23.1489 33.8526 22.8705C33.7718 22.592 33.6314 22.3345 33.4411 22.1157C33.2509 21.897 33.0153 21.7222 32.7508 21.6034C32.4863 21.4847 32.1992 21.4249 31.9093 21.4282H26.2493Z" stroke="white" stroke-width="2" stroke-linecap="round" stroke-linejoin="round"/>
</svg>
