<svg width="16" height="16" viewBox="0 0 16 16" fill="none" xmlns="http://www.w3.org/2000/svg">
<path fill-rule="evenodd" clip-rule="evenodd" d="M4.97968 0.709955C5.76168 0.673955 6.01101 0.665955 8.00301 0.665955C9.99501 0.665955 10.2443 0.674621 11.0257 0.709955C11.807 0.745288 12.3403 0.869955 12.807 1.05062C13.2957 1.23529 13.739 1.52395 14.1057 1.89729C14.479 2.26329 14.767 2.70595 14.951 3.19529C15.1323 3.66195 15.2563 4.19529 15.2923 4.97529C15.3283 5.75862 15.3363 6.00795 15.3363 7.99929C15.3363 9.99129 15.3277 10.2406 15.2923 11.0226C15.257 11.8026 15.1323 12.336 14.951 12.8026C14.767 13.292 14.4785 13.7354 14.1057 14.102C13.739 14.4753 13.2957 14.7633 12.807 14.9473C12.3403 15.1286 11.807 15.2526 11.027 15.2886C10.2443 15.3246 9.99501 15.3326 8.00301 15.3326C6.01101 15.3326 5.76168 15.324 4.97968 15.2886C4.19968 15.2533 3.66634 15.1286 3.19968 14.9473C2.71029 14.7633 2.26689 14.4748 1.90034 14.102C1.52726 13.7357 1.23855 13.2925 1.05434 12.8033C0.873678 12.3366 0.749678 11.8033 0.713678 11.0233C0.677678 10.24 0.669678 9.99062 0.669678 7.99929C0.669678 6.00729 0.678344 5.75795 0.713678 4.97662C0.749011 4.19529 0.873678 3.66195 1.05434 3.19529C1.23883 2.70601 1.52776 2.26283 1.90101 1.89662C2.26704 1.52362 2.70999 1.23492 3.19901 1.05062C3.66568 0.869955 4.19901 0.745955 4.97901 0.709955H4.97968ZM10.9663 2.02995C10.193 1.99462 9.96101 1.98729 8.00301 1.98729C6.04501 1.98729 5.81301 1.99462 5.03968 2.02995C4.32434 2.06262 3.93634 2.18195 3.67768 2.28262C3.33568 2.41595 3.09101 2.57395 2.83434 2.83062C2.59104 3.06732 2.4038 3.35548 2.28634 3.67395C2.18568 3.93262 2.06634 4.32062 2.03368 5.03595C1.99834 5.80929 1.99101 6.04129 1.99101 7.99929C1.99101 9.95729 1.99834 10.1893 2.03368 10.9626C2.06634 11.678 2.18568 12.066 2.28634 12.3246C2.40368 12.6426 2.59101 12.9313 2.83434 13.168C3.07101 13.4113 3.35968 13.5986 3.67768 13.716C3.93634 13.8166 4.32434 13.936 5.03968 13.9686C5.81301 14.004 6.04434 14.0113 8.00301 14.0113C9.96168 14.0113 10.193 14.004 10.9663 13.9686C11.6817 13.936 12.0697 13.8166 12.3283 13.716C12.6703 13.5826 12.915 13.4246 13.1717 13.168C13.415 12.9313 13.6023 12.6426 13.7197 12.3246C13.8203 12.066 13.9397 11.678 13.9723 10.9626C14.0077 10.1893 14.015 9.95729 14.015 7.99929C14.015 6.04129 14.0077 5.80929 13.9723 5.03595C13.9397 4.32062 13.8203 3.93262 13.7197 3.67395C13.5863 3.33195 13.4283 3.08729 13.1717 2.83062C12.935 2.58734 12.6468 2.4001 12.3283 2.28262C12.0697 2.18195 11.6817 2.06262 10.9663 2.02995V2.02995ZM7.06634 10.26C7.58945 10.4777 8.17193 10.5071 8.7143 10.3431C9.25666 10.1791 9.72527 9.8319 10.0401 9.36078C10.3549 8.88967 10.4964 8.32387 10.4404 7.76002C10.3844 7.19618 10.1343 6.66927 9.73301 6.26929C9.47717 6.01361 9.16782 5.81783 8.82723 5.69605C8.48664 5.57428 8.1233 5.52953 7.76334 5.56503C7.40338 5.60054 7.05578 5.71541 6.74555 5.90137C6.43531 6.08734 6.17017 6.33978 5.96921 6.64052C5.76825 6.94126 5.63647 7.28281 5.58335 7.6406C5.53024 7.99838 5.55711 8.36348 5.66204 8.70963C5.76696 9.05578 5.94733 9.37436 6.19016 9.64244C6.43298 9.91051 6.73223 10.1214 7.06634 10.26ZM5.33768 5.33395C5.68769 4.98394 6.10322 4.70629 6.56054 4.51686C7.01786 4.32743 7.50801 4.22994 8.00301 4.22994C8.49801 4.22994 8.98816 4.32743 9.44548 4.51686C9.9028 4.70629 10.3183 4.98394 10.6683 5.33395C11.0184 5.68397 11.296 6.0995 11.4854 6.55682C11.6749 7.01414 11.7724 7.50429 11.7724 7.99929C11.7724 8.49429 11.6749 8.98444 11.4854 9.44176C11.296 9.89907 11.0184 10.3146 10.6683 10.6646C9.96145 11.3715 9.0027 11.7686 8.00301 11.7686C7.00332 11.7686 6.04457 11.3715 5.33768 10.6646C4.63079 9.95773 4.23366 8.99898 4.23366 7.99929C4.23366 6.99959 4.63079 6.04084 5.33768 5.33395V5.33395ZM12.6083 4.79129C12.6951 4.70947 12.7645 4.61108 12.8125 4.50194C12.8606 4.3928 12.8862 4.27513 12.888 4.15591C12.8897 4.03668 12.8675 3.91832 12.8227 3.80783C12.7778 3.69734 12.7113 3.59696 12.627 3.51265C12.5427 3.42833 12.4423 3.36179 12.3318 3.31697C12.2213 3.27214 12.1029 3.24994 11.9837 3.25168C11.8645 3.25341 11.7468 3.27906 11.6377 3.32709C11.5286 3.37511 11.4302 3.44455 11.3483 3.53129C11.1892 3.69997 11.1021 3.92404 11.1055 4.15591C11.1089 4.38778 11.2025 4.60921 11.3664 4.77318C11.5304 4.93716 11.7518 5.03077 11.9837 5.03415C12.2156 5.03753 12.4397 4.95041 12.6083 4.79129V4.79129Z" fill="#70777A"/>
</svg>
