<svg width="13" height="13" viewBox="0 0 13 13" fill="none" xmlns="http://www.w3.org/2000/svg">
<path d="M2.3239 3.79813C3.1295 3.79813 3.78257 3.14506 3.78257 2.33947C3.78257 1.53387 3.1295 0.880798 2.3239 0.880798C1.5183 0.880798 0.865234 1.53387 0.865234 2.33947C0.865234 3.14506 1.5183 3.79813 2.3239 3.79813Z" fill="#70777A"/>
<path d="M5.15765 4.90404V12.9967H7.67032V8.99471C7.67032 7.93871 7.86899 6.91604 9.17832 6.91604C10.4697 6.91604 10.4857 8.12337 10.4857 9.06137V12.9974H12.9997V8.55937C12.9997 6.37937 12.5303 4.70404 9.98232 4.70404C8.75899 4.70404 7.93899 5.37537 7.60365 6.01071H7.56965V4.90404H5.15765ZM1.06299 4.90404H3.57965V12.9967H1.06299V4.90404Z" fill="#70777A"/>
</svg>
