<svg width="53" height="49" viewBox="0 0 53 49" fill="none" xmlns="http://www.w3.org/2000/svg">
<path d="M52.4154 23.692C48.6789 18.2493 40.954 26.2593 26.8559 27.8873C21.636 28.4893 16.9328 32.8481 10.8693 32.4328C8.38307 32.262 4.91137 25.1088 2.31229 26.2491C0.975127 26.8367 0.361537 28.7975 1.73633 30.2707L17.0008 48.4845C17.0008 48.4845 17.7765 49.3789 20.3901 48.7595C21.034 48.9491 30.7154 45.0693 36.313 37.3024C37.6531 35.4428 39.2507 33.8944 40.9048 32.6007C46.2752 28.6297 52.113 27.2462 52.113 27.2462C52.8597 26.6297 53.0348 25.9742 52.9943 25.4054C53.0435 24.4561 52.4154 23.692 52.4154 23.692Z" fill="#5C913B"/>
<path d="M17.5015 15.001C12.0269 22.5985 2.43955 26.1976 2.43955 26.1976C0.650876 27.7127 2.1617 29.4985 2.1617 29.4985L17.267 47.3838C17.267 47.3838 18.0224 48.2767 20.5665 47.6573C20.5665 47.6573 30.1539 44.0655 35.627 36.468C41.2694 28.6389 51.4443 26.1672 51.4443 26.1672C53.2315 24.652 51.7221 22.8633 51.7221 22.8633L36.6168 4.98095C36.6168 4.98095 35.8614 4.08662 33.3173 4.7031C33.3173 4.7031 23.1439 7.16904 17.5015 15.001Z" fill="#A7D28B"/>
<path d="M32.7318 28.3522C37.1276 28.3522 40.6911 24.7887 40.6911 20.3929C40.6911 15.9971 37.1276 12.4336 32.7318 12.4336C28.336 12.4336 24.7725 15.9971 24.7725 20.3929C24.7725 24.7887 28.336 28.3522 32.7318 28.3522Z" fill="#77B255"/>
<path d="M19.5227 46.3387C18.2477 46.3387 17.7803 45.864 17.7166 45.7917L4.10041 29.8976C4.07437 29.8673 3.38408 29.0771 3.46801 28.0728C3.51866 27.4635 3.83414 26.9209 4.40431 26.4592L4.49548 26.4042C4.58376 26.3695 13.4143 22.7401 18.3635 16.1801L18.6529 16.3972L18.3635 16.1801C23.5993 9.23963 32.6309 6.2614 32.7206 6.23246C35.2459 5.64491 36.0722 6.48426 36.1605 6.58267L49.5973 22.565C49.6219 22.591 50.3107 23.384 50.2268 24.3898C50.1761 24.9976 49.8606 25.5403 49.2905 26.0019L49.1472 26.0728C49.0589 26.0945 40.2776 28.2768 35.1909 35.0177C30.1274 41.7324 21.2882 46.0768 21.1999 46.1187C20.5284 46.2779 19.9756 46.3387 19.5227 46.3387ZM18.2622 45.3156C18.2636 45.3156 18.9163 45.9176 20.9611 45.4429C20.9727 45.427 29.657 41.1565 34.6164 34.5835C39.5902 27.9918 47.9663 25.6372 48.8954 25.3927C49.2673 25.0729 49.4728 24.7183 49.5061 24.3377C49.5669 23.6431 49.0546 23.0454 49.0502 23.0396L35.6135 7.05588C35.6106 7.05588 34.9623 6.45532 32.916 6.92998C32.8567 6.95024 24.0378 9.8619 18.9424 16.6157C14.0713 23.0715 5.57216 26.7385 4.82109 27.054C4.43326 27.3796 4.22197 27.7428 4.18869 28.1321C4.1308 28.821 4.6402 29.4158 4.64454 29.4215L18.2622 45.3156Z" fill="#5C913B"/>
<path d="M31.6835 32.2105L31.6748 40.8065L32.394 41.6603C33.7963 40.3811 35.1436 38.9426 36.3086 37.3247C37.5169 35.6489 38.9207 34.2148 40.4011 33.0035L39.7021 32.1714L31.6835 32.2105Z" fill="#FFAC33"/>
<path d="M39.675 32.1407L21.577 10.7041C20.1067 11.9139 18.6942 13.3249 17.4931 14.9934C16.3195 16.6229 14.9534 18.0571 13.5352 19.3219L15.6509 21.8269L15.6494 21.8283L31.6766 40.8062C33.0948 39.54 34.445 38.0914 35.6201 36.4604C36.8212 34.7933 38.2322 33.3838 39.701 32.174L39.6735 32.1407H39.675Z" fill="#FFE8B6"/>
<path d="M21.8474 32.7734C19.5942 30.1048 14.8244 34.4347 13.4641 32.824C12.8057 32.044 13.2297 31.0325 14.0951 30.3031C15.5495 29.073 16.5986 29.7894 17.2571 29.2322C17.7245 28.8386 17.6999 28.3567 17.4221 28.0253C16.7766 27.2627 15.1269 27.6606 13.8447 28.4016L13.221 27.6635C12.8317 27.2033 12.1429 27.144 11.6827 27.5333C11.2225 27.924 11.1646 28.6099 11.5539 29.0701L12.1993 29.8357C11.2196 31.1352 10.8868 32.8602 12.0459 34.2307C14.2109 36.7921 19.04 32.5346 20.5595 34.3349C21.0862 34.96 20.9386 36.1525 19.8301 37.0873C18.1688 38.4925 16.6638 37.8341 15.988 38.4042C15.658 38.6806 15.5987 39.2074 15.9503 39.6256C16.5104 40.287 18.2947 40.1452 20.0096 39.0772C20.0125 39.0801 20.0125 39.0829 20.0125 39.0858L20.7172 39.9194C21.1065 40.3796 21.7968 40.436 22.257 40.0496C22.7186 39.6589 22.7751 38.9701 22.3858 38.5099L21.681 37.6763C21.6738 37.6676 21.6622 37.6618 21.6535 37.6532C22.8098 36.2379 23.2005 34.3725 21.8474 32.7734Z" fill="#5C913B"/>
<path d="M47.8624 47.2929C47.8754 47.2813 47.8899 47.2726 47.9029 47.2625C48.0013 47.1641 48.078 47.0512 48.1648 46.9426C48.2256 46.8674 48.2936 46.795 48.3501 46.7183C48.4007 46.646 48.4427 46.5722 48.489 46.4984C50.5439 43.3335 49.1981 37.9674 45.1302 33.8981C41.0608 29.8287 35.6933 28.4828 32.5299 30.5392C32.4546 30.5841 32.3808 30.6261 32.3084 30.6782C32.2317 30.7346 32.1579 30.8026 32.0856 30.862C31.9785 30.9502 31.8656 31.0255 31.7658 31.1253C31.7527 31.1384 31.7441 31.1528 31.7339 31.1659C31.718 31.1818 31.6992 31.1919 31.6818 31.2093L31.6905 31.2165C30.2434 32.7534 30.226 35.131 31.6818 36.5883C33.1406 38.047 35.5168 38.0268 37.0551 36.5796L37.071 36.597C37.0406 36.6259 37.0073 36.6448 36.9784 36.6737C35.4459 38.2062 35.4097 40.6505 36.893 42.1367C38.3778 43.62 40.8249 43.5838 42.356 42.0513C42.3849 42.0223 42.4037 41.9891 42.4327 41.9587L42.4486 41.976C41.0015 43.5129 40.9826 45.8906 42.4414 47.3493C43.8986 48.8051 46.2749 48.7878 47.8117 47.3406L47.8204 47.3493C47.8349 47.329 47.8465 47.3102 47.8624 47.2929Z" fill="#E1E8ED"/>
<path d="M31.6853 36.6456C32.9964 37.9553 35.0441 38.0624 36.5622 37.0233C37.1975 35.9379 37.3798 34.9061 37.3798 34.5834C34.186 36.9654 31.3351 34.5964 30.6969 33.1797C30.4321 34.404 30.7533 35.7122 31.6853 36.6456ZM42.248 42.2026C42.6793 41.5963 43.0136 41.0102 43.1698 40.6137C41.1366 42.4776 37.2496 41.1129 36.0716 38.1564C35.5535 39.5312 35.8183 41.1144 36.8979 42.194C38.348 43.644 40.7097 43.6324 42.248 42.2026ZM47.8253 47.4051L47.8673 47.353C47.8818 47.3415 47.8962 47.3328 47.9078 47.3212C48.0077 47.2228 48.0844 47.1099 48.1697 47.0028C48.232 46.9261 48.2985 46.8552 48.355 46.7771C48.4071 46.7062 48.449 46.6309 48.4953 46.5571C48.5894 46.4124 48.6401 46.2416 48.7197 46.0882C45.0613 47.725 42.3305 44.9479 41.565 43.563C41.1381 44.89 41.4159 46.3762 42.4463 47.408C43.9021 48.8653 46.2783 48.8479 47.8166 47.3994L47.8253 47.4051Z" fill="#CCD6DD"/>
<path d="M21.0907 18.2192L21.1312 18.1874C21.2311 18.089 21.3077 17.9761 21.3931 17.869C21.4539 17.7938 21.5205 17.7229 21.5769 17.6447C21.629 17.5724 21.671 17.4986 21.7173 17.4248C23.7722 14.2599 22.4249 8.89239 18.357 4.82446C14.2876 0.755079 8.92162 -0.592215 5.75671 1.46273C5.6829 1.50904 5.60765 1.55101 5.5353 1.60311C5.45715 1.65955 5.38624 1.72611 5.31099 1.78689C5.2039 1.87372 5.09102 1.94897 4.99262 2.04883C4.97959 2.06185 4.97091 2.07777 4.96078 2.08935C4.94486 2.10382 4.9246 2.11684 4.90868 2.13276L4.91592 2.14C3.46877 3.67687 3.4514 6.05453 4.90868 7.51181C6.36596 8.96908 8.74362 8.95172 10.2805 7.50457L10.2964 7.52049C10.266 7.54799 10.2327 7.56825 10.2038 7.59719C8.67126 9.12972 8.63508 11.5739 10.1199 13.0602C11.6046 14.5464 14.0503 14.5088 15.5828 12.9762C15.6118 12.9473 15.6306 12.914 15.6595 12.8836L15.6755 12.8995C14.2283 14.4364 14.2095 16.8141 15.6682 18.2713C17.1255 19.7286 19.5017 19.7113 21.0386 18.2627L21.0458 18.2713C21.0617 18.2554 21.0748 18.2366 21.0907 18.2192Z" fill="#E1E8ED"/>
<path d="M4.90697 7.51324C6.21808 8.82436 8.2658 8.93145 9.78385 7.8895C10.4192 6.80414 10.6 5.77377 10.6 5.45106C7.40764 7.83162 4.55531 5.46119 3.91857 4.04443C3.65374 5.27017 3.97501 6.57983 4.90697 7.51324ZM15.4726 13.0674C15.9024 12.461 16.2367 11.8778 16.3915 11.4813C14.3568 13.3452 10.4698 11.9791 9.29327 9.02262C8.77519 10.3974 9.04002 11.9806 10.1181 13.0602C11.5711 14.5116 13.9343 14.4986 15.4726 13.0674ZM21.0456 18.2728C21.0615 18.2569 21.0745 18.238 21.089 18.2207L21.1295 18.1888C21.2293 18.0904 21.306 17.9776 21.3914 17.8705C21.4522 17.7952 21.5188 17.7243 21.5752 17.6462C21.6273 17.5738 21.6693 17.5 21.7156 17.4262C21.8096 17.2815 21.8603 17.1093 21.9399 16.9559C18.2815 18.5926 15.5507 15.817 14.7852 14.4321C14.3583 15.7591 14.6361 17.2453 15.6665 18.2757C17.1238 19.733 19.5 19.7156 21.0369 18.267L21.0456 18.2728Z" fill="#CCD6DD"/>
</svg>
