<svg width="43" height="43" viewBox="0 0 43 43" fill="none" xmlns="http://www.w3.org/2000/svg">
<path d="M21.379 42.758C33.1863 42.758 42.758 33.1863 42.758 21.379C42.758 9.5717 33.1863 0 21.379 0C9.5717 0 0 9.5717 0 21.379C0 33.1863 9.5717 42.758 21.379 42.758Z" fill="#88C9F9"/>
<path d="M3.33987 30.1383C3.26624 28.9506 3.26624 28.7285 3.26624 27.3175C3.26624 25.9064 3.93373 26.1297 4.60242 25.4622C5.27111 24.7947 5.12264 24.7199 6.23554 23.9883C7.34843 23.2566 6.75576 22.4193 6.68094 21.9739C6.60611 21.5285 5.93861 21.8991 4.82453 22.0463C3.71044 22.1936 4.08339 21.6758 3.4147 21.3788C2.74601 21.0819 2.45027 20.6365 2.00369 19.3003C1.5571 17.9641 1.48346 17.5924 1.63312 16.4795C1.78277 15.3666 2.30181 16.4047 2.37544 17.5924C2.44908 18.7801 3.48953 18.3347 3.48953 19.077C3.48953 19.8194 4.97418 20.6353 5.34475 20.8586C5.71532 21.0819 6.75576 19.7445 7.12633 19.374C7.4969 19.0034 7.94348 18.4832 8.09076 18.1862C8.23804 17.8893 10.0956 17.666 10.4662 17.666C10.8368 17.666 11.7276 18.7801 11.7276 19.2991C11.7276 19.8182 12.173 21.2292 12.5447 22.0452C12.9165 22.8611 13.7324 23.0096 14.4748 23.6034C15.2171 24.1973 15.5888 23.6771 15.5888 23.6771C15.5888 23.6771 15.2919 22.4157 15.2919 21.3753C15.2919 20.3348 16.1827 19.4452 16.1827 19.4452C16.1827 19.4452 17.5937 20.4845 17.6674 20.7814C17.741 21.0783 18.8551 22.1176 18.9287 22.6366C19.0024 23.1557 19.5962 23.8244 20.6901 23.9728C21.784 24.1213 21.0072 22.7115 21.3778 21.7458C21.7484 20.7802 22.2686 20.6318 22.9361 20.4845C23.6036 20.3372 24.1238 19.7422 24.5692 19.1483C25.0146 18.5544 25.8306 17.7373 25.7569 17.0698C25.6833 16.4023 25.46 15.9557 25.1631 15.1397C24.8661 14.3238 26.0539 14.0257 26.5741 13.0612C27.0943 12.0968 26.5741 13.0612 27.7618 12.7643C28.9495 12.4674 28.4293 12.4674 28.6526 12.022C28.8759 11.5766 29.0232 11.1312 28.8011 10.314C28.579 9.49687 27.7618 10.314 26.9458 10.314C26.1299 10.314 27.244 9.20469 27.3176 8.3139C27.3912 7.42311 28.4317 7.6464 29.1728 7.57157C29.914 7.49675 30.1373 8.53601 30.3605 8.7593C30.5838 8.98259 32.8845 7.27464 33.4783 6.45749C34.0722 5.64034 32.9593 5.86482 33.2562 5.52038C33.5531 5.17594 31.4746 5.10586 30.6575 4.97403C29.8403 4.84219 27.763 4.75074 26.947 4.24714C26.1311 3.74355 23.0133 4.12362 22.1961 4.52863C21.379 4.93364 20.86 4.49419 20.4882 3.93477C20.1164 3.37535 18.5582 3.65566 18.1128 3.34091C17.6674 3.02616 17.222 3.85994 16.6281 4.08324C16.0342 4.30653 15.811 4.38017 15.0698 3.93477C14.3287 3.48937 15.2919 2.96915 14.2527 2.59858C13.5567 2.35035 12.7229 2.49525 11.4259 2.46675C4.63449 6.04773 0 13.1681 0 21.3788C0 25.4408 1.15328 29.2237 3.12015 32.4567C3.48596 31.8415 3.39451 31.0113 3.33987 30.1383ZM20.5618 28.7285C21.0821 28.8021 22.5667 28.7285 21.379 27.764C20.1913 26.7996 19.5238 27.5407 19.671 26.4278C19.8183 25.315 18.9287 25.3138 18.9287 25.3138C18.9287 26.1309 18.3349 27.0217 18.9287 27.8377C19.5226 28.6536 20.0428 28.6536 20.5618 28.7285Z" fill="#5C913B"/>
<path d="M28.1348 16.3312C26.9471 15.3668 27.8379 15.6637 27.9863 14.5496C28.1348 13.4355 27.244 13.4355 27.244 13.4355C27.244 14.2527 26.6502 15.1435 27.244 15.9595C27.8379 16.7754 26.0563 17.4441 26.5765 17.5177C27.0967 17.5914 29.3225 17.2956 28.1348 16.3312ZM23.5264 27.9115C24.2628 28.7287 23.9778 27.9115 24.9422 27.5409C25.9066 27.1704 24.1251 26.3532 23.5312 25.9078C22.9373 25.4624 22.347 25.4458 21.828 26.428C21.2389 27.5409 22.7901 27.0943 23.5264 27.9115ZM32.217 29.3962C31.8464 28.9508 31.0293 28.7287 30.1385 28.7488C29.2477 28.7702 29.3213 27.763 28.4306 27.8367C27.5398 27.9103 26.9031 27.2381 26.5005 27.0302C25.6252 26.5789 26.2036 27.6134 26.5005 28.7477C26.7974 29.8819 27.9115 29.0232 28.9496 29.6171C29.9877 30.2109 30.0637 29.3938 31.0281 29.6907C31.9925 29.9876 32.3643 30.6551 33.2895 30.5815C34.2148 30.5079 32.5888 29.8415 32.217 29.3962ZM30.287 32.6624C29.9164 31.9201 28.8308 31.2514 28.3854 30.8749C27.94 30.4984 27.2428 30.3713 26.649 30.5898C26.0551 30.8084 25.6845 30.5898 25.3876 30.0019C25.0907 29.414 24.5705 29.6194 24.1262 29.6931C23.682 29.7667 21.8993 30.5102 20.86 31.0293C19.8208 31.5483 19.348 31.9996 18.6663 32.6624C17.5997 33.7005 18.1876 33.033 18.6663 33.7016C19.1449 34.3691 18.1413 36.4477 18.0677 37.6354C17.994 38.8231 19.9704 37.2648 20.7127 37.1152C21.4551 36.9655 21.2365 36.5213 21.8304 36.0759C22.4242 35.6305 22.8103 35.526 23.4623 36.1198C24.1144 36.7137 24.9683 37.2636 24.9683 37.9311C24.9683 38.5986 27.3188 39.7127 28.2096 39.2673C29.1004 38.8219 29.6206 37.9311 30.4366 37.1888C31.2526 36.4465 30.9568 35.0366 31.1789 34.1459C31.401 33.2551 30.6575 33.4047 30.287 32.6624Z" fill="#5C913B"/>
</svg>
