<svg width="24" height="24" viewBox="0 0 24 24" fill="none" xmlns="http://www.w3.org/2000/svg">
<path d="M12 1.5C6.20156 1.5 1.5 6.20156 1.5 12C1.5 17.7984 6.20156 22.5 12 22.5C17.7984 22.5 22.5 17.7984 22.5 12C22.5 6.20156 17.7984 1.5 12 1.5ZM12 20.7188C7.18594 20.7188 3.28125 16.8141 3.28125 12C3.28125 7.18594 7.18594 3.28125 12 3.28125C16.8141 3.28125 20.7188 7.18594 20.7188 12C20.7188 16.8141 16.8141 20.7188 12 20.7188Z" fill="#007DFF"/>
<path d="M16.8609 11.6976L9.9211 6.65853C9.86544 6.61773 9.79954 6.59318 9.73075 6.58763C9.66197 6.58208 9.59299 6.59574 9.53151 6.62709C9.47002 6.65844 9.41846 6.70624 9.38255 6.76518C9.34664 6.82411 9.3278 6.89186 9.32813 6.96087V17.039C9.32813 17.346 9.675 17.5195 9.9211 17.3413L16.8609 12.3023C16.9089 12.2678 16.9479 12.2223 16.9748 12.1698C17.0017 12.1172 17.0157 12.059 17.0157 11.9999C17.0157 11.9409 17.0017 11.8827 16.9748 11.8301C16.9479 11.7775 16.9089 11.7321 16.8609 11.6976V11.6976ZM10.8234 14.8382V9.16165L14.7305 11.9999L10.8234 14.8382V14.8382Z" fill="#007DFF"/>
</svg>
